{
    "asset" : {
        "generator" : "Khronos glTF Blender I/O v3.2.43",
        "version" : "2.0"
    },
    "scene" : 0,
    "scenes" : [
        {
            "name" : "Scene",
            "nodes" : [
                0,
                1
            ]
        }
    ],
    "nodes" : [
        {
            "mesh" : 0,
            "name" : "Bottom",
            "rotation" : [
                0.7071068286895752,
                0,
                0,
                0.7071068286895752
            ],
            "translation" : [
                -1.1640583579719532e-05,
                -0.014055566862225533,
                -0.9870669841766357
            ]
        },
        {
            "mesh" : 1,
            "name" : "Upper",
            "rotation" : [
                0.7071068286895752,
                0,
                0,
                0.7071068286895752
            ],
            "translation" : [
                -1.1640583579719532e-05,
                -0.014055566862225533,
                -0.9870669841766357
            ]
        }
    ],
    "animations" : [
        {
            "channels" : [
                {
                    "sampler" : 0,
                    "target" : {
                        "node" : 0,
                        "path" : "rotation"
                    }
                }
            ],
            "name" : "BottomAction",
            "samplers" : [
                {
                    "input" : 40,
                    "interpolation" : "LINEAR",
                    "output" : 41
                }
            ]
        },
        {
            "channels" : [
                {
                    "sampler" : 0,
                    "target" : {
                        "node" : 1,
                        "path" : "rotation"
                    }
                }
            ],
            "name" : "UpperAction",
            "samplers" : [
                {
                    "input" : 40,
                    "interpolation" : "LINEAR",
                    "output" : 42
                }
            ]
        }
    ],
    "materials" : [
        {
            "doubleSided" : true,
            "name" : "Material.005",
            "pbrMetallicRoughness" : {
                "baseColorFactor" : [
                    0.00213382369838655,
                    0.8000000715255737,
                    0.003900100477039814,
                    1
                ],
                "metallicFactor" : 0,
                "roughnessFactor" : 0.5
            }
        },
        {
            "doubleSided" : true,
            "name" : "Material.004",
            "pbrMetallicRoughness" : {
                "baseColorFactor" : [
                    0,
                    0.7484382390975952,
                    1,
                    1
                ],
                "roughnessFactor" : 0.5
            }
        },
        {
            "doubleSided" : true,
            "name" : "Material",
            "pbrMetallicRoughness" : {
                "baseColorFactor" : [
                    0.800000011920929,
                    0.800000011920929,
                    0.800000011920929,
                    1
                ],
                "metallicFactor" : 0,
                "roughnessFactor" : 0.4000000059604645
            }
        },
        {
            "doubleSided" : true,
            "name" : "Material.001",
            "pbrMetallicRoughness" : {
                "baseColorFactor" : [
                    0.19494156539440155,
                    0.22025670111179352,
                    0.2141702026128769,
                    1
                ],
                "metallicFactor" : 0,
                "roughnessFactor" : 0.5
            }
        },
        {
            "doubleSided" : true,
            "name" : "Material.003",
            "pbrMetallicRoughness" : {
                "baseColorFactor" : [
                    0.800000011920929,
                    0.009999999776482582,
                    0.009999999776482582,
                    1
                ],
                "metallicFactor" : 0,
                "roughnessFactor" : 0.09055116772651672
            }
        },
        {
            "doubleSided" : true,
            "name" : "Material.002",
            "pbrMetallicRoughness" : {
                "baseColorFactor" : [
                    0.007132682483643293,
                    0.007132682483643293,
                    0.007132682483643293,
                    1
                ],
                "metallicFactor" : 0,
                "roughnessFactor" : 0.5
            }
        }
    ],
    "meshes" : [
        {
            "name" : "Sphere",
            "primitives" : [
                {
                    "attributes" : {
                        "POSITION" : 0,
                        "NORMAL" : 1,
                        "TEXCOORD_0" : 2
                    },
                    "indices" : 3,
                    "material" : 0
                },
                {
                    "attributes" : {
                        "POSITION" : 4,
                        "NORMAL" : 5,
                        "TEXCOORD_0" : 6
                    },
                    "indices" : 7,
                    "material" : 1
                },
                {
                    "attributes" : {
                        "POSITION" : 8,
                        "NORMAL" : 9,
                        "TEXCOORD_0" : 10
                    },
                    "indices" : 11,
                    "material" : 2
                },
                {
                    "attributes" : {
                        "POSITION" : 12,
                        "NORMAL" : 13,
                        "TEXCOORD_0" : 14
                    },
                    "indices" : 15,
                    "material" : 3
                }
            ]
        },
        {
            "name" : "Sphere.002",
            "primitives" : [
                {
                    "attributes" : {
                        "POSITION" : 16,
                        "NORMAL" : 17,
                        "TEXCOORD_0" : 18
                    },
                    "indices" : 19,
                    "material" : 0
                },
                {
                    "attributes" : {
                        "POSITION" : 20,
                        "NORMAL" : 21,
                        "TEXCOORD_0" : 22
                    },
                    "indices" : 23,
                    "material" : 1
                },
                {
                    "attributes" : {
                        "POSITION" : 24,
                        "NORMAL" : 25,
                        "TEXCOORD_0" : 26
                    },
                    "indices" : 27,
                    "material" : 4
                },
                {
                    "attributes" : {
                        "POSITION" : 28,
                        "NORMAL" : 29,
                        "TEXCOORD_0" : 30
                    },
                    "indices" : 31,
                    "material" : 2
                },
                {
                    "attributes" : {
                        "POSITION" : 32,
                        "NORMAL" : 33,
                        "TEXCOORD_0" : 34
                    },
                    "indices" : 35,
                    "material" : 5
                },
                {
                    "attributes" : {
                        "POSITION" : 36,
                        "NORMAL" : 37,
                        "TEXCOORD_0" : 38
                    },
                    "indices" : 39,
                    "material" : 3
                }
            ]
        }
    ],
    "accessors" : [
        {
            "bufferView" : 0,
            "componentType" : 5126,
            "count" : 96,
            "max" : [
                0.18171358108520508,
                1.1687690019607544,
                0.9451681971549988
            ],
            "min" : [
                -0.18169021606445312,
                0.8053651452064514,
                0.928048312664032
            ],
            "type" : "VEC3"
        },
        {
            "bufferView" : 1,
            "componentType" : 5126,
            "count" : 96,
            "type" : "VEC3"
        },
        {
            "bufferView" : 2,
            "componentType" : 5126,
            "count" : 96,
            "type" : "VEC2"
        },
        {
            "bufferView" : 3,
            "componentType" : 5123,
            "count" : 96,
            "type" : "SCALAR"
        },
        {
            "bufferView" : 4,
            "componentType" : 5126,
            "count" : 240,
            "max" : [
                0.8852464556694031,
                1.8723015785217285,
                0.775467038154602
            ],
            "min" : [
                -0.8852227926254272,
                0.10183274745941162,
                0.38845399022102356
            ],
            "type" : "VEC3"
        },
        {
            "bufferView" : 5,
            "componentType" : 5126,
            "count" : 240,
            "type" : "VEC3"
        },
        {
            "bufferView" : 6,
            "componentType" : 5126,
            "count" : 240,
            "type" : "VEC2"
        },
        {
            "bufferView" : 7,
            "componentType" : 5123,
            "count" : 744,
            "type" : "SCALAR"
        },
        {
            "bufferView" : 8,
            "componentType" : 5126,
            "count" : 621,
            "max" : [
                0.9979929327964783,
                1.966930866241455,
                0.9859437942504883
            ],
            "min" : [
                -0.9979690313339233,
                -0.010928988456726074,
                0.0031655654311180115
            ],
            "type" : "VEC3"
        },
        {
            "bufferView" : 9,
            "componentType" : 5126,
            "count" : 621,
            "type" : "VEC3"
        },
        {
            "bufferView" : 10,
            "componentType" : 5126,
            "count" : 621,
            "type" : "VEC2"
        },
        {
            "bufferView" : 11,
            "componentType" : 5123,
            "count" : 1962,
            "type" : "SCALAR"
        },
        {
            "bufferView" : 12,
            "componentType" : 5126,
            "count" : 2762,
            "max" : [
                0.9753883481025696,
                1.950136661529541,
                0.9458760023117065
            ],
            "min" : [
                -0.9753644466400146,
                0.016537964344024658,
                0.003704603761434555
            ],
            "type" : "VEC3"
        },
        {
            "bufferView" : 13,
            "componentType" : 5126,
            "count" : 2762,
            "type" : "VEC3"
        },
        {
            "bufferView" : 14,
            "componentType" : 5126,
            "count" : 2762,
            "type" : "VEC2"
        },
        {
            "bufferView" : 15,
            "componentType" : 5123,
            "count" : 9582,
            "type" : "SCALAR"
        },
        {
            "bufferView" : 16,
            "componentType" : 5126,
            "count" : 96,
            "max" : [
                0.18171359598636627,
                1.1687688827514648,
                -0.9561594724655151
            ],
            "min" : [
                -0.1816902458667755,
                0.8053652048110962,
                -0.9732794165611267
            ],
            "type" : "VEC3"
        },
        {
            "bufferView" : 17,
            "componentType" : 5126,
            "count" : 96,
            "type" : "VEC3"
        },
        {
            "bufferView" : 18,
            "componentType" : 5126,
            "count" : 96,
            "type" : "VEC2"
        },
        {
            "bufferView" : 19,
            "componentType" : 5123,
            "count" : 96,
            "type" : "SCALAR"
        },
        {
            "bufferView" : 20,
            "componentType" : 5126,
            "count" : 246,
            "max" : [
                0.8883318901062012,
                1.8753870725631714,
                -0.41821375489234924
            ],
            "min" : [
                -0.8883082866668701,
                0.09874653816223145,
                -0.8062847256660461
            ],
            "type" : "VEC3"
        },
        {
            "bufferView" : 21,
            "componentType" : 5126,
            "count" : 246,
            "type" : "VEC3"
        },
        {
            "bufferView" : 22,
            "componentType" : 5126,
            "count" : 246,
            "type" : "VEC2"
        },
        {
            "bufferView" : 23,
            "componentType" : 5123,
            "count" : 744,
            "type" : "SCALAR"
        },
        {
            "bufferView" : 24,
            "componentType" : 5126,
            "count" : 718,
            "max" : [
                0.9979929327964783,
                1.966930866241455,
                -0.028050266206264496
            ],
            "min" : [
                -0.9979690313339233,
                -0.010928928852081299,
                -1.014054298400879
            ],
            "type" : "VEC3"
        },
        {
            "bufferView" : 25,
            "componentType" : 5126,
            "count" : 718,
            "type" : "VEC3"
        },
        {
            "bufferView" : 26,
            "componentType" : 5126,
            "count" : 718,
            "type" : "VEC2"
        },
        {
            "bufferView" : 27,
            "componentType" : 5123,
            "count" : 2244,
            "type" : "SCALAR"
        },
        {
            "bufferView" : 28,
            "componentType" : 5126,
            "count" : 740,
            "max" : [
                0.16026346385478973,
                2.023252010345459,
                0.14790883660316467
            ],
            "min" : [
                -0.16024009883403778,
                1.9598541259765625,
                -0.17601996660232544
            ],
            "type" : "VEC3"
        },
        {
            "bufferView" : 29,
            "componentType" : 5126,
            "count" : 740,
            "type" : "VEC3"
        },
        {
            "bufferView" : 30,
            "componentType" : 5126,
            "count" : 740,
            "type" : "VEC2"
        },
        {
            "bufferView" : 31,
            "componentType" : 5123,
            "count" : 1524,
            "type" : "SCALAR"
        },
        {
            "bufferView" : 32,
            "componentType" : 5126,
            "count" : 214,
            "max" : [
                0.9870661497116089,
                1.959856629371643,
                0.1773737668991089
            ],
            "min" : [
                -0.987042248249054,
                0,
                -0.20548489689826965
            ],
            "type" : "VEC3"
        },
        {
            "bufferView" : 33,
            "componentType" : 5126,
            "count" : 214,
            "type" : "VEC3"
        },
        {
            "bufferView" : 34,
            "componentType" : 5126,
            "count" : 214,
            "type" : "VEC2"
        },
        {
            "bufferView" : 35,
            "componentType" : 5123,
            "count" : 384,
            "type" : "SCALAR"
        },
        {
            "bufferView" : 36,
            "componentType" : 5126,
            "count" : 3087,
            "max" : [
                0.9870661497116089,
                1.9569238424301147,
                0.1773737668991089
            ],
            "min" : [
                -0.987042248249054,
                0,
                -0.9739875793457031
            ],
            "type" : "VEC3"
        },
        {
            "bufferView" : 37,
            "componentType" : 5126,
            "count" : 3087,
            "type" : "VEC3"
        },
        {
            "bufferView" : 38,
            "componentType" : 5126,
            "count" : 3087,
            "type" : "VEC2"
        },
        {
            "bufferView" : 39,
            "componentType" : 5123,
            "count" : 9984,
            "type" : "SCALAR"
        },
        {
            "bufferView" : 40,
            "componentType" : 5126,
            "count" : 10,
            "max" : [
                0.375
            ],
            "min" : [
                0
            ],
            "type" : "SCALAR"
        },
        {
            "bufferView" : 41,
            "componentType" : 5126,
            "count" : 10,
            "type" : "VEC4"
        },
        {
            "bufferView" : 42,
            "componentType" : 5126,
            "count" : 10,
            "type" : "VEC4"
        }
    ],
    "bufferViews" : [
        {
            "buffer" : 0,
            "byteLength" : 1152,
            "byteOffset" : 0
        },
        {
            "buffer" : 0,
            "byteLength" : 1152,
            "byteOffset" : 1152
        },
        {
            "buffer" : 0,
            "byteLength" : 768,
            "byteOffset" : 2304
        },
        {
            "buffer" : 0,
            "byteLength" : 192,
            "byteOffset" : 3072
        },
        {
            "buffer" : 0,
            "byteLength" : 2880,
            "byteOffset" : 3264
        },
        {
            "buffer" : 0,
            "byteLength" : 2880,
            "byteOffset" : 6144
        },
        {
            "buffer" : 0,
            "byteLength" : 1920,
            "byteOffset" : 9024
        },
        {
            "buffer" : 0,
            "byteLength" : 1488,
            "byteOffset" : 10944
        },
        {
            "buffer" : 0,
            "byteLength" : 7452,
            "byteOffset" : 12432
        },
        {
            "buffer" : 0,
            "byteLength" : 7452,
            "byteOffset" : 19884
        },
        {
            "buffer" : 0,
            "byteLength" : 4968,
            "byteOffset" : 27336
        },
        {
            "buffer" : 0,
            "byteLength" : 3924,
            "byteOffset" : 32304
        },
        {
            "buffer" : 0,
            "byteLength" : 33144,
            "byteOffset" : 36228
        },
        {
            "buffer" : 0,
            "byteLength" : 33144,
            "byteOffset" : 69372
        },
        {
            "buffer" : 0,
            "byteLength" : 22096,
            "byteOffset" : 102516
        },
        {
            "buffer" : 0,
            "byteLength" : 19164,
            "byteOffset" : 124612
        },
        {
            "buffer" : 0,
            "byteLength" : 1152,
            "byteOffset" : 143776
        },
        {
            "buffer" : 0,
            "byteLength" : 1152,
            "byteOffset" : 144928
        },
        {
            "buffer" : 0,
            "byteLength" : 768,
            "byteOffset" : 146080
        },
        {
            "buffer" : 0,
            "byteLength" : 192,
            "byteOffset" : 146848
        },
        {
            "buffer" : 0,
            "byteLength" : 2952,
            "byteOffset" : 147040
        },
        {
            "buffer" : 0,
            "byteLength" : 2952,
            "byteOffset" : 149992
        },
        {
            "buffer" : 0,
            "byteLength" : 1968,
            "byteOffset" : 152944
        },
        {
            "buffer" : 0,
            "byteLength" : 1488,
            "byteOffset" : 154912
        },
        {
            "buffer" : 0,
            "byteLength" : 8616,
            "byteOffset" : 156400
        },
        {
            "buffer" : 0,
            "byteLength" : 8616,
            "byteOffset" : 165016
        },
        {
            "buffer" : 0,
            "byteLength" : 5744,
            "byteOffset" : 173632
        },
        {
            "buffer" : 0,
            "byteLength" : 4488,
            "byteOffset" : 179376
        },
        {
            "buffer" : 0,
            "byteLength" : 8880,
            "byteOffset" : 183864
        },
        {
            "buffer" : 0,
            "byteLength" : 8880,
            "byteOffset" : 192744
        },
        {
            "buffer" : 0,
            "byteLength" : 5920,
            "byteOffset" : 201624
        },
        {
            "buffer" : 0,
            "byteLength" : 3048,
            "byteOffset" : 207544
        },
        {
            "buffer" : 0,
            "byteLength" : 2568,
            "byteOffset" : 210592
        },
        {
            "buffer" : 0,
            "byteLength" : 2568,
            "byteOffset" : 213160
        },
        {
            "buffer" : 0,
            "byteLength" : 1712,
            "byteOffset" : 215728
        },
        {
            "buffer" : 0,
            "byteLength" : 768,
            "byteOffset" : 217440
        },
        {
            "buffer" : 0,
            "byteLength" : 37044,
            "byteOffset" : 218208
        },
        {
            "buffer" : 0,
            "byteLength" : 37044,
            "byteOffset" : 255252
        },
        {
            "buffer" : 0,
            "byteLength" : 24696,
            "byteOffset" : 292296
        },
        {
            "buffer" : 0,
            "byteLength" : 19968,
            "byteOffset" : 316992
        },
        {
            "buffer" : 0,
            "byteLength" : 40,
            "byteOffset" : 336960
        },
        {
            "buffer" : 0,
            "byteLength" : 160,
            "byteOffset" : 337000
        },
        {
            "buffer" : 0,
            "byteLength" : 160,
            "byteOffset" : 337160
        }
    ],
    "buffers" : [
        {
            "byteLength" : 337320,
            "uri" : "data:application/octet-stream;base64,"
        }
    ]
}
